<svg id="svg" version="1.1" xmlns="http://www.w3.org/2000/svg" xmlns:xlink="http://www.w3.org/1999/xlink" width="400" height="400" viewBox="0, 0, 400,400"><g id="svgg"><path id="path0" d="M22.400 50.800 C 22.400 51.022,21.333 51.200,20.000 51.200 C 18.667 51.200,17.600 51.378,17.600 51.600 C 17.600 51.820,17.060 52.000,16.400 52.000 C 15.740 52.000,15.200 52.180,15.200 52.400 C 15.200 52.620,14.919 52.800,14.576 52.800 C 14.233 52.800,14.064 52.620,14.200 52.400 C 14.336 52.180,14.257 52.000,14.024 52.000 C 13.791 52.000,13.600 52.180,13.600 52.400 C 13.600 52.620,13.195 52.813,12.700 52.828 C 11.841 52.855,11.837 52.872,12.600 53.200 C 13.270 53.488,13.189 53.548,12.100 53.572 C 11.076 53.594,10.800 53.770,10.800 54.400 C 10.800 54.882,10.533 55.200,10.130 55.200 C 9.761 55.200,8.427 56.282,7.165 57.604 C 5.740 59.097,4.793 59.817,4.666 59.504 C 4.538 59.185,4.452 59.244,4.432 59.667 C 4.414 60.033,4.175 60.424,3.900 60.535 C 3.500 60.696,3.500 60.743,3.900 60.768 C 4.175 60.786,4.400 60.999,4.400 61.243 C 4.400 61.486,4.139 61.586,3.820 61.463 C 3.433 61.315,3.315 61.433,3.463 61.820 C 3.586 62.139,3.486 62.400,3.243 62.400 C 2.999 62.400,2.800 62.760,2.800 63.200 C 2.800 63.640,2.620 64.000,2.400 64.000 C 2.180 64.000,2.000 64.360,2.000 64.800 C 2.000 65.240,1.820 65.600,1.600 65.600 C 1.380 65.600,1.200 66.061,1.200 66.624 C 1.200 67.187,1.036 67.546,0.836 67.422 C 0.028 66.923,-0.033 78.733,0.151 201.000 C 0.364 341.992,0.289 331.472,1.079 331.775 C 1.449 331.917,1.564 332.284,1.401 332.798 C 1.254 333.259,1.328 333.600,1.573 333.600 C 1.808 333.600,2.004 333.915,2.009 334.300 C 2.014 334.685,2.370 335.450,2.800 336.000 C 3.230 336.550,3.591 337.180,3.602 337.400 C 3.613 337.620,4.425 338.700,5.407 339.800 C 6.389 340.900,7.194 341.935,7.196 342.100 C 7.198 342.265,7.390 342.400,7.622 342.400 C 7.854 342.400,8.619 342.939,9.322 343.598 C 10.025 344.257,10.754 344.797,10.943 344.798 C 11.131 344.799,11.190 345.050,11.073 345.355 C 10.923 345.744,11.090 345.849,11.630 345.708 C 12.053 345.597,12.400 345.708,12.400 345.953 C 12.400 346.199,12.749 346.400,13.176 346.400 C 13.603 346.400,14.064 346.580,14.200 346.800 C 14.336 347.020,14.887 347.200,15.424 347.200 C 15.961 347.200,16.400 347.380,16.400 347.600 C 16.400 347.820,16.928 348.000,17.573 348.000 C 18.395 348.000,18.822 348.240,19.000 348.800 C 19.140 349.240,19.432 349.600,19.651 349.600 C 19.869 349.600,19.949 349.440,19.828 349.245 C 19.561 348.813,20.936 348.413,22.713 348.405 C 23.514 348.402,24.115 348.634,24.255 349.000 C 24.453 349.514,26.155 349.600,36.193 349.600 L 47.900 349.600 48.150 348.350 C 48.287 347.663,48.400 296.823,48.400 235.374 C 48.400 161.321,48.535 123.564,48.800 123.400 C 49.020 123.264,49.200 123.305,49.200 123.490 C 49.200 123.676,49.733 124.143,50.385 124.528 C 51.037 124.913,51.802 125.453,52.085 125.727 C 52.368 126.002,53.230 126.662,54.000 127.194 C 54.770 127.726,55.490 128.269,55.600 128.400 C 55.710 128.531,56.430 129.075,57.200 129.608 C 57.970 130.142,58.780 130.723,59.000 130.900 C 59.220 131.076,61.830 133.021,64.800 135.221 C 67.770 137.422,70.470 139.444,70.800 139.717 C 71.130 139.989,72.030 140.650,72.800 141.186 C 73.570 141.723,74.290 142.269,74.400 142.400 C 74.510 142.531,75.230 143.077,76.000 143.614 C 76.770 144.150,77.670 144.803,78.000 145.065 C 79.343 146.131,90.299 154.248,91.600 155.141 C 92.370 155.669,93.090 156.222,93.200 156.370 C 93.310 156.518,94.030 157.071,94.800 157.600 C 95.570 158.129,96.290 158.672,96.400 158.807 C 96.510 158.942,97.496 159.663,98.591 160.408 C 99.686 161.154,100.856 161.989,101.191 162.264 C 101.526 162.539,104.860 165.026,108.600 167.791 C 112.340 170.556,115.670 173.041,116.000 173.315 C 116.330 173.588,117.230 174.250,118.000 174.786 C 118.770 175.323,119.490 175.869,119.600 176.000 C 119.710 176.131,120.430 176.671,121.200 177.200 C 121.970 177.729,122.690 178.269,122.800 178.400 C 122.910 178.531,123.630 179.077,124.400 179.614 C 125.170 180.150,126.070 180.804,126.400 181.068 C 126.730 181.332,129.520 183.400,132.600 185.663 C 135.680 187.926,138.290 189.881,138.400 190.008 C 138.510 190.135,139.230 190.671,140.000 191.200 C 140.770 191.729,141.490 192.269,141.600 192.400 C 141.710 192.531,142.430 193.071,143.200 193.600 C 143.970 194.129,144.690 194.669,144.800 194.800 C 144.910 194.931,145.630 195.475,146.400 196.008 C 147.170 196.542,147.980 197.123,148.200 197.299 C 148.420 197.476,151.030 199.428,154.000 201.637 C 156.970 203.846,159.670 205.869,160.000 206.132 C 160.330 206.396,161.230 207.050,162.000 207.586 C 162.770 208.123,163.490 208.672,163.600 208.807 C 163.710 208.942,164.696 209.663,165.791 210.408 C 166.886 211.154,168.056 211.989,168.391 212.264 C 168.726 212.539,172.060 215.026,175.800 217.791 C 179.540 220.556,182.870 223.041,183.200 223.315 C 183.530 223.588,184.430 224.250,185.200 224.786 C 185.970 225.323,186.690 225.860,186.800 225.981 C 186.998 226.198,187.757 226.645,190.155 227.956 C 193.382 229.721,199.392 230.704,202.876 230.036 C 206.116 229.415,208.499 228.749,208.980 228.330 C 209.189 228.149,209.684 228.000,210.080 228.000 C 210.476 228.000,210.800 227.820,210.800 227.600 C 210.800 227.380,211.160 227.200,211.600 227.200 C 212.040 227.200,212.400 227.059,212.400 226.886 C 212.400 226.714,212.907 226.273,213.527 225.907 C 214.147 225.540,217.252 223.307,220.427 220.944 C 241.936 204.935,247.301 200.938,252.927 196.731 C 256.408 194.129,259.345 192.000,259.456 192.000 C 259.567 192.000,259.945 191.712,260.297 191.360 C 260.649 191.008,262.481 189.586,264.369 188.200 C 273.899 181.199,278.238 178.000,278.600 177.706 C 279.079 177.317,288.645 170.181,305.000 158.012 C 311.600 153.101,319.120 147.489,321.712 145.542 C 324.303 143.594,326.521 142.000,326.640 142.000 C 326.760 142.000,327.145 141.712,327.497 141.360 C 327.849 141.008,329.681 139.586,331.569 138.200 C 333.456 136.813,337.340 133.952,340.200 131.842 C 343.060 129.732,345.835 127.689,346.366 127.303 C 346.897 126.916,347.527 126.410,347.766 126.178 C 348.768 125.203,351.359 123.651,351.667 123.841 C 351.850 123.955,352.000 174.506,352.000 236.178 L 352.000 348.309 353.808 348.580 C 354.802 348.729,355.511 349.020,355.384 349.226 C 355.243 349.454,359.193 349.600,365.543 349.600 C 373.328 349.600,375.974 349.478,376.095 349.115 C 376.205 348.784,377.232 348.649,379.328 348.689 C 381.018 348.721,382.400 348.579,382.400 348.374 C 382.400 348.168,382.670 348.000,383.000 348.000 C 383.330 348.000,383.600 348.208,383.600 348.461 C 383.600 348.715,383.936 348.535,384.347 348.061 C 385.087 347.208,386.276 346.831,385.800 347.600 C 385.664 347.820,385.731 348.000,385.949 348.000 C 386.168 348.000,386.460 347.640,386.600 347.200 C 386.863 346.371,387.600 346.086,387.600 346.814 C 387.600 347.042,388.026 346.817,388.547 346.314 C 389.068 345.811,389.418 345.265,389.324 345.100 C 389.230 344.935,389.343 344.800,389.576 344.800 C 389.809 344.800,390.000 345.017,390.000 345.281 C 390.000 345.546,390.315 345.352,390.700 344.851 C 391.767 343.460,394.340 340.767,394.584 340.784 C 395.402 340.844,395.600 340.730,395.600 340.200 C 395.600 339.870,395.825 339.597,396.100 339.594 C 396.433 339.590,396.400 339.458,396.000 339.200 C 395.524 338.892,395.607 338.810,396.400 338.800 C 397.217 338.790,397.290 338.710,396.800 338.363 C 396.348 338.044,396.324 337.889,396.700 337.736 C 396.975 337.625,397.200 337.278,397.200 336.967 C 397.200 336.655,397.380 336.400,397.600 336.400 C 397.820 336.400,398.000 336.040,398.000 335.600 C 398.000 335.160,398.180 334.800,398.400 334.800 C 398.620 334.800,398.800 334.434,398.800 333.986 C 398.800 333.538,399.069 332.761,399.399 332.258 C 400.222 331.002,400.124 66.375,399.300 66.100 C 399.025 66.008,398.800 65.588,398.800 65.167 C 398.800 64.745,398.620 64.400,398.400 64.400 C 398.180 64.400,398.000 64.040,398.000 63.600 C 398.000 63.160,397.820 62.800,397.600 62.800 C 397.380 62.800,397.200 62.480,397.200 62.088 C 397.200 61.697,396.840 61.117,396.400 60.800 C 395.960 60.483,395.600 60.075,395.600 59.894 C 395.600 59.222,393.664 57.610,393.461 58.111 C 393.352 58.380,393.249 58.272,393.232 57.871 C 393.199 57.109,392.301 56.000,391.717 56.000 C 391.530 56.000,391.117 55.640,390.800 55.200 C 390.483 54.760,389.993 54.400,389.712 54.400 C 389.430 54.400,389.200 54.220,389.200 54.000 C 389.200 53.780,388.930 53.600,388.600 53.600 C 388.270 53.600,388.000 53.420,388.000 53.200 C 388.000 52.980,387.640 52.800,387.200 52.800 C 386.760 52.800,386.400 52.620,386.400 52.400 C 386.400 52.180,385.860 52.000,385.200 52.000 C 384.540 52.000,384.000 51.820,384.000 51.600 C 384.000 51.380,383.280 51.200,382.400 51.200 C 381.520 51.200,380.800 51.020,380.800 50.800 C 380.800 50.564,379.392 50.400,377.376 50.400 C 375.317 50.400,374.046 50.551,374.188 50.780 C 374.317 50.989,373.742 51.265,372.911 51.394 C 370.918 51.704,366.470 53.182,365.155 53.972 C 363.719 54.835,359.046 58.083,358.800 58.389 C 358.690 58.526,357.970 59.077,357.200 59.614 C 356.430 60.150,355.530 60.808,355.200 61.076 C 354.870 61.344,352.260 63.288,349.400 65.396 C 346.540 67.504,343.930 69.449,343.600 69.720 C 343.270 69.990,342.370 70.650,341.600 71.186 C 340.830 71.723,340.110 72.269,340.000 72.400 C 339.890 72.531,339.170 73.077,338.400 73.614 C 337.630 74.150,336.730 74.806,336.400 75.071 C 336.070 75.337,332.740 77.826,329.000 80.603 C 325.260 83.380,321.930 85.868,321.600 86.132 C 321.270 86.396,320.370 87.053,319.600 87.593 C 318.830 88.132,317.968 88.798,317.685 89.073 C 317.402 89.347,316.637 89.887,315.985 90.272 C 315.333 90.657,314.800 91.114,314.800 91.286 C 314.800 91.459,314.530 91.600,314.200 91.600 C 313.870 91.600,313.600 91.741,313.600 91.914 C 313.600 92.086,313.067 92.543,312.415 92.928 C 311.763 93.313,310.998 93.853,310.715 94.127 C 310.432 94.402,309.570 95.068,308.800 95.607 C 308.030 96.147,307.130 96.808,306.800 97.077 C 306.470 97.345,303.860 99.296,301.000 101.412 C 298.140 103.528,295.530 105.474,295.200 105.736 C 294.870 105.997,293.970 106.650,293.200 107.186 C 292.430 107.723,291.710 108.269,291.600 108.400 C 291.490 108.531,290.770 109.071,290.000 109.600 C 289.230 110.129,288.510 110.666,288.400 110.795 C 288.159 111.076,279.574 117.437,277.600 118.797 C 276.830 119.327,276.110 119.869,276.000 120.000 C 275.890 120.131,275.170 120.671,274.400 121.200 C 273.630 121.729,272.910 122.269,272.800 122.400 C 272.690 122.531,271.970 123.071,271.200 123.600 C 270.430 124.129,269.710 124.669,269.600 124.800 C 269.490 124.931,268.770 125.477,268.000 126.014 C 267.230 126.550,266.330 127.205,266.000 127.470 C 265.670 127.734,264.050 128.947,262.400 130.164 C 260.750 131.382,259.207 132.541,258.970 132.739 C 258.734 132.938,257.564 133.793,256.370 134.639 C 255.177 135.485,254.110 136.281,254.000 136.408 C 253.890 136.535,253.170 137.071,252.400 137.600 C 251.630 138.129,250.910 138.660,250.800 138.781 C 250.150 139.493,247.179 141.600,246.823 141.600 C 246.591 141.600,246.400 141.741,246.400 141.914 C 246.400 142.086,245.867 142.543,245.215 142.928 C 244.563 143.313,243.798 143.853,243.515 144.127 C 243.232 144.402,242.370 145.068,241.600 145.607 C 240.830 146.147,239.930 146.811,239.600 147.083 C 239.270 147.356,236.570 149.378,233.600 151.579 C 230.630 153.779,228.020 155.724,227.800 155.900 C 227.580 156.077,226.770 156.658,226.000 157.192 C 225.230 157.725,224.510 158.269,224.400 158.400 C 224.290 158.531,223.570 159.071,222.800 159.600 C 222.030 160.129,221.310 160.669,221.200 160.800 C 221.090 160.931,220.370 161.471,219.600 162.000 C 218.830 162.529,218.110 163.067,218.000 163.196 C 217.890 163.325,216.000 164.738,213.800 166.337 C 211.600 167.935,209.530 169.461,209.200 169.727 C 208.870 169.994,207.372 171.109,205.870 172.206 C 204.369 173.303,202.659 174.605,202.070 175.100 C 201.028 175.975,199.001 176.326,198.733 175.677 C 198.660 175.499,197.700 174.746,196.600 174.003 C 195.500 173.260,194.510 172.546,194.400 172.415 C 194.290 172.284,192.850 171.183,191.200 169.968 C 185.833 166.015,176.615 159.163,176.000 158.670 C 175.670 158.405,174.770 157.744,174.000 157.200 C 173.230 156.656,172.330 155.991,172.000 155.721 C 171.670 155.452,168.340 152.963,164.600 150.191 C 160.860 147.418,157.530 144.936,157.200 144.675 C 155.851 143.607,140.897 132.503,139.600 131.606 C 138.830 131.074,138.110 130.531,138.000 130.400 C 137.890 130.269,137.170 129.723,136.400 129.186 C 135.630 128.650,134.730 127.991,134.400 127.722 C 134.070 127.453,132.540 126.318,131.000 125.200 C 129.460 124.082,127.930 122.950,127.600 122.684 C 127.270 122.418,125.650 121.201,124.000 119.979 C 115.657 113.803,109.337 109.101,108.800 108.670 C 108.470 108.405,107.570 107.750,106.800 107.214 C 106.030 106.677,105.310 106.131,105.200 106.000 C 105.090 105.869,104.370 105.323,103.600 104.786 C 102.830 104.250,101.930 103.587,101.600 103.312 C 101.270 103.037,98.660 101.091,95.800 98.988 C 92.940 96.884,90.326 94.947,89.991 94.682 C 89.278 94.118,87.348 92.678,78.400 86.033 C 74.770 83.337,71.530 80.919,71.200 80.660 C 70.870 80.401,69.970 79.750,69.200 79.214 C 68.430 78.677,67.710 78.131,67.600 78.000 C 67.490 77.869,66.770 77.323,66.000 76.786 C 65.230 76.250,64.330 75.595,64.000 75.330 C 63.353 74.811,58.265 71.028,56.735 69.928 C 54.807 68.542,38.960 56.719,38.000 55.951 C 35.694 54.104,28.953 51.600,26.289 51.600 C 24.957 51.600,24.305 51.418,24.145 51.000 C 23.890 50.336,22.400 50.165,22.400 50.800 " stroke="none" fill="#ee4134" fill-rule="evenodd"></path><path id="path1" d="M48.400 51.000 C 48.400 51.515,47.168 51.600,39.711 51.600 L 31.023 51.600 33.929 52.993 C 36.505 54.228,40.249 56.516,40.800 57.193 C 40.910 57.328,41.630 57.871,42.400 58.400 C 43.170 58.929,43.890 59.469,44.000 59.600 C 44.110 59.731,44.830 60.277,45.600 60.814 C 46.370 61.350,47.270 62.008,47.600 62.277 C 47.930 62.545,50.540 64.496,53.400 66.612 C 56.260 68.728,58.870 70.674,59.200 70.936 C 59.530 71.197,60.430 71.850,61.200 72.386 C 61.970 72.923,62.690 73.469,62.800 73.600 C 62.910 73.731,63.630 74.277,64.400 74.814 C 65.170 75.350,66.070 76.009,66.400 76.278 C 66.730 76.547,68.260 77.682,69.800 78.800 C 71.340 79.918,72.955 81.128,73.390 81.489 C 73.824 81.851,74.724 82.523,75.390 82.983 C 76.676 83.871,90.985 94.505,92.000 95.326 C 92.330 95.593,93.230 96.256,94.000 96.800 C 94.770 97.344,95.670 98.013,96.000 98.288 C 96.330 98.563,98.940 100.509,101.800 102.612 C 104.660 104.716,107.270 106.656,107.600 106.924 C 107.930 107.192,108.830 107.850,109.600 108.386 C 110.370 108.923,111.090 109.469,111.200 109.600 C 111.310 109.731,112.030 110.277,112.800 110.814 C 113.570 111.350,114.470 112.008,114.800 112.277 C 115.130 112.545,117.740 114.492,120.600 116.604 C 123.460 118.716,126.070 120.661,126.400 120.928 C 126.730 121.194,127.630 121.850,128.400 122.386 C 129.170 122.923,129.890 123.469,130.000 123.600 C 130.110 123.731,130.830 124.277,131.600 124.814 C 132.370 125.350,133.270 126.009,133.600 126.278 C 133.930 126.547,135.460 127.682,137.000 128.800 C 138.540 129.918,140.120 131.098,140.512 131.423 C 140.904 131.747,143.604 133.764,146.512 135.904 C 152.600 140.383,158.330 144.638,159.200 145.326 C 159.964 145.930,164.237 149.109,171.600 154.552 C 174.790 156.910,177.674 159.056,178.009 159.320 C 178.907 160.027,182.357 162.597,188.000 166.761 C 190.750 168.790,193.270 170.666,193.600 170.931 C 193.930 171.195,194.830 171.850,195.600 172.386 C 196.370 172.923,197.090 173.469,197.200 173.600 C 197.310 173.731,197.985 174.247,198.700 174.747 L 200.000 175.654 201.300 174.736 C 202.015 174.231,205.840 171.402,209.800 168.450 C 213.760 165.497,218.080 162.288,219.400 161.319 C 220.720 160.349,222.070 159.340,222.400 159.077 C 223.042 158.566,238.600 147.040,242.600 144.112 C 243.920 143.146,245.270 142.140,245.600 141.876 C 245.930 141.613,248.270 139.854,250.800 137.967 C 263.157 128.753,279.888 116.287,287.800 110.400 C 292.640 106.798,299.455 101.725,302.945 99.126 C 306.435 96.527,309.435 94.400,309.612 94.400 C 309.789 94.400,309.993 94.256,310.067 94.080 C 310.140 93.904,314.430 90.611,319.600 86.763 C 336.783 73.972,350.897 63.452,356.983 58.897 C 362.153 55.029,366.060 52.620,368.400 51.858 C 368.730 51.751,365.368 51.649,360.929 51.632 C 354.318 51.606,352.749 51.491,352.257 51.000 C 351.726 50.469,334.276 50.400,200.029 50.400 C 65.514 50.400,48.400 50.468,48.400 51.000 M48.800 237.000 L 48.800 349.600 200.100 349.600 L 351.400 349.600 351.300 263.300 C 351.244 215.835,351.154 165.174,351.100 150.719 L 351.000 124.439 349.800 125.398 C 349.140 125.925,345.990 128.287,342.800 130.646 C 331.725 138.836,330.999 139.379,330.800 139.608 C 330.690 139.735,329.970 140.275,329.200 140.808 C 328.430 141.342,327.451 142.098,327.025 142.489 C 326.598 142.880,326.106 143.200,325.931 143.200 C 325.757 143.200,325.116 143.647,324.507 144.193 C 323.898 144.739,321.060 146.901,318.200 148.999 C 315.340 151.096,312.730 153.037,312.400 153.312 C 312.070 153.587,311.170 154.254,310.400 154.795 C 309.630 155.336,308.651 156.098,308.225 156.489 C 307.798 156.880,307.228 157.200,306.958 157.200 C 306.688 157.200,306.407 157.335,306.333 157.500 C 306.260 157.665,305.120 158.610,303.800 159.599 C 302.480 160.588,301.310 161.497,301.200 161.618 C 301.090 161.739,300.370 162.277,299.600 162.814 C 298.830 163.350,297.930 164.008,297.600 164.275 C 297.270 164.543,295.110 166.149,292.800 167.846 C 287.979 171.386,279.687 177.567,278.800 178.280 C 278.470 178.546,275.860 180.484,273.000 182.588 C 270.140 184.691,267.530 186.637,267.200 186.912 C 266.870 187.187,265.970 187.850,265.200 188.386 C 264.430 188.923,263.710 189.469,263.600 189.600 C 263.490 189.731,262.770 190.271,262.000 190.800 C 261.230 191.329,260.510 191.869,260.400 192.000 C 260.290 192.131,259.570 192.671,258.800 193.200 C 258.030 193.729,257.310 194.269,257.200 194.400 C 257.090 194.531,256.370 195.077,255.600 195.614 C 254.830 196.150,253.930 196.806,253.600 197.071 C 253.270 197.336,251.380 198.741,249.400 200.194 C 247.420 201.647,245.530 203.055,245.200 203.323 C 244.870 203.592,243.970 204.250,243.200 204.786 C 242.430 205.323,241.710 205.872,241.600 206.007 C 241.490 206.142,240.500 206.859,239.400 207.600 C 238.300 208.341,237.310 209.058,237.200 209.193 C 237.090 209.328,236.370 209.871,235.600 210.400 C 234.830 210.929,234.110 211.469,234.000 211.600 C 233.890 211.731,233.170 212.277,232.400 212.814 C 231.630 213.350,230.730 214.006,230.400 214.272 C 230.070 214.538,228.720 215.547,227.400 216.515 C 226.080 217.483,222.424 220.193,219.275 222.537 C 216.125 224.882,213.395 226.800,213.208 226.800 C 213.020 226.800,212.807 226.935,212.733 227.100 C 212.548 227.518,209.288 229.065,207.600 229.536 C 206.830 229.752,205.557 230.124,204.772 230.364 C 203.024 230.897,197.110 230.937,195.428 230.427 C 194.753 230.222,193.390 229.825,192.400 229.546 C 190.019 228.873,187.340 227.385,184.800 225.325 C 184.470 225.057,182.670 223.716,180.800 222.346 C 175.009 218.101,163.411 209.447,163.200 209.214 C 163.090 209.092,162.326 208.544,161.503 207.996 C 160.679 207.448,160.004 206.865,160.003 206.700 C 160.001 206.535,159.830 206.400,159.623 206.400 C 159.415 206.400,155.320 203.465,150.523 199.878 C 142.322 193.746,127.920 183.022,121.200 178.044 C 119.550 176.822,118.110 175.719,118.000 175.592 C 117.890 175.465,117.170 174.926,116.400 174.393 C 114.605 173.152,96.265 159.505,96.000 159.213 C 95.890 159.092,95.126 158.544,94.303 157.996 C 93.479 157.448,92.804 156.865,92.803 156.700 C 92.801 156.535,92.637 156.400,92.437 156.400 C 92.238 156.400,87.963 153.328,82.937 149.572 C 77.912 145.817,73.350 142.410,72.800 142.002 C 72.250 141.593,68.470 138.787,64.400 135.766 C 51.727 126.359,51.020 125.827,50.225 125.104 C 49.798 124.717,49.303 124.400,49.125 124.400 C 48.946 124.400,48.800 175.070,48.800 237.000 " stroke="none" fill="#f8f8f8" fill-rule="evenodd"></path><path id="path2" d="M28.200 50.800 C 28.060 51.027,28.396 51.200,28.976 51.200 C 29.539 51.200,30.000 51.372,30.000 51.581 C 30.000 51.791,30.585 52.131,31.300 52.338 C 32.015 52.544,32.960 52.826,33.400 52.963 C 33.840 53.101,33.480 52.855,32.600 52.417 L 31.000 51.621 39.700 51.610 C 47.162 51.601,48.400 51.515,48.400 51.000 C 48.400 50.274,28.646 50.078,28.200 50.800 M352.000 50.757 C 352.000 51.465,353.390 51.601,361.133 51.646 C 365.460 51.672,368.640 51.779,368.200 51.885 C 366.986 52.177,366.593 52.729,367.757 52.506 C 368.317 52.399,368.983 52.061,369.237 51.756 C 369.490 51.450,370.126 51.200,370.649 51.200 C 371.172 51.200,371.600 51.020,371.600 50.800 C 371.600 50.544,368.067 50.400,361.800 50.400 C 356.316 50.400,352.000 50.557,352.000 50.757 M363.393 54.264 C 360.691 56.067,352.800 62.033,352.800 62.272 C 352.800 62.396,353.025 62.321,353.300 62.105 C 355.988 59.990,362.514 55.195,363.700 54.462 C 364.525 53.952,365.200 53.459,365.200 53.367 C 365.200 53.085,365.039 53.165,363.393 54.264 M36.200 54.256 C 37.026 55.087,40.800 57.587,40.795 57.299 C 40.792 57.135,40.207 56.626,39.495 56.168 C 36.821 54.451,35.812 53.865,36.200 54.256 M41.200 57.749 C 41.200 57.835,41.830 58.386,42.600 58.973 C 43.370 59.560,43.998 59.897,43.995 59.720 C 43.992 59.544,43.362 58.993,42.595 58.496 C 41.828 57.999,41.200 57.663,41.200 57.749 M347.400 66.032 C 344.760 68.019,342.420 69.851,342.200 70.103 C 341.677 70.702,341.924 70.528,347.700 66.223 C 351.763 63.194,352.766 62.363,352.300 62.410 C 352.245 62.416,350.040 64.046,347.400 66.032 M48.940 63.503 C 49.096 63.756,49.791 64.367,50.484 64.860 C 51.177 65.354,51.617 65.550,51.460 65.297 C 51.304 65.044,50.609 64.433,49.916 63.940 C 49.223 63.446,48.783 63.250,48.940 63.503 M52.144 65.909 C 52.460 66.421,54.800 68.153,54.800 67.875 C 54.800 67.776,54.139 67.191,53.332 66.575 C 52.524 65.959,51.989 65.659,52.144 65.909 M57.686 70.200 C 58.495 70.750,59.299 71.200,59.472 71.200 C 59.644 71.200,59.123 70.750,58.314 70.200 C 57.505 69.650,56.701 69.200,56.528 69.200 C 56.356 69.200,56.877 69.650,57.686 70.200 M338.118 72.924 C 336.313 74.286,334.603 75.665,334.318 75.989 C 333.908 76.455,333.967 76.450,334.600 75.962 C 335.040 75.623,336.795 74.313,338.500 73.050 C 340.205 71.788,341.600 70.675,341.600 70.578 C 341.600 70.298,341.579 70.312,338.118 72.924 M60.000 71.749 C 60.000 71.835,60.630 72.386,61.400 72.973 C 62.170 73.560,62.798 73.897,62.795 73.720 C 62.792 73.544,62.162 72.993,61.395 72.496 C 60.628 71.999,60.000 71.663,60.000 71.749 M331.985 77.629 L 330.600 78.858 332.100 77.781 C 333.426 76.830,333.857 76.400,333.485 76.400 C 333.422 76.400,332.747 76.953,331.985 77.629 M67.740 77.503 C 67.896 77.756,68.591 78.367,69.284 78.860 C 69.977 79.354,70.417 79.550,70.260 79.297 C 70.104 79.044,69.409 78.433,68.716 77.940 C 68.023 77.446,67.583 77.250,67.740 77.503 M70.969 79.949 C 71.359 80.582,73.601 82.099,73.595 81.727 C 73.592 81.547,72.943 80.981,72.152 80.468 C 71.360 79.955,70.828 79.722,70.969 79.949 M327.600 80.849 C 326.206 82.071,326.205 82.072,327.488 81.219 C 328.196 80.748,328.882 80.191,329.012 79.981 C 329.397 79.357,329.077 79.554,327.600 80.849 M74.000 82.189 C 74.000 82.338,77.163 84.730,86.100 91.339 C 87.805 92.600,89.200 93.542,89.200 93.433 C 89.200 93.324,86.365 91.116,82.900 88.528 C 75.906 83.302,74.000 81.945,74.000 82.189 M324.400 83.249 C 323.006 84.471,323.005 84.472,324.288 83.619 C 324.996 83.148,325.682 82.591,325.812 82.381 C 326.197 81.757,325.877 81.954,324.400 83.249 M318.100 87.821 C 316.505 89.034,315.200 90.115,315.200 90.223 C 315.200 90.331,316.550 89.403,318.200 88.161 C 320.806 86.200,321.513 85.577,321.100 85.607 C 321.045 85.612,319.695 86.608,318.100 87.821 M313.185 91.629 L 311.800 92.858 313.300 91.781 C 314.626 90.830,315.057 90.400,314.685 90.400 C 314.622 90.400,313.947 90.953,313.185 91.629 M89.769 93.949 C 90.159 94.582,92.401 96.099,92.395 95.727 C 92.392 95.547,91.743 94.981,90.952 94.468 C 90.160 93.955,89.628 93.722,89.769 93.949 M308.162 95.262 L 307.400 96.124 308.500 95.416 C 309.634 94.686,309.849 94.400,309.262 94.400 C 309.076 94.400,308.581 94.788,308.162 95.262 M92.800 96.149 C 92.800 96.235,93.430 96.786,94.200 97.373 C 94.970 97.960,95.598 98.297,95.595 98.120 C 95.592 97.944,94.962 97.393,94.195 96.896 C 93.428 96.399,92.800 96.063,92.800 96.149 M305.600 97.249 C 304.206 98.471,304.205 98.472,305.488 97.619 C 306.196 97.148,306.882 96.591,307.012 96.381 C 307.397 95.757,307.077 95.954,305.600 97.249 M295.096 104.938 C 290.310 108.518,286.170 111.697,285.896 112.001 C 285.289 112.679,286.125 112.076,296.100 104.632 C 302.907 99.552,304.428 98.339,303.900 98.414 C 303.845 98.422,299.883 101.358,295.096 104.938 M97.344 99.509 C 97.660 100.021,100.000 101.753,100.000 101.475 C 100.000 101.376,99.339 100.791,98.532 100.175 C 97.724 99.559,97.189 99.259,97.344 99.509 M100.400 101.774 C 100.400 101.873,101.795 102.988,103.500 104.250 C 105.205 105.513,106.915 106.811,107.300 107.135 C 107.685 107.459,107.997 107.561,107.993 107.362 C 107.989 107.163,107.134 106.424,106.093 105.720 C 105.052 105.017,103.345 103.800,102.300 103.016 C 101.255 102.233,100.400 101.674,100.400 101.774 M108.400 107.749 C 108.400 107.835,109.030 108.386,109.800 108.973 C 110.570 109.560,111.198 109.897,111.195 109.720 C 111.192 109.544,110.562 108.993,109.795 108.496 C 109.028 107.999,108.400 107.663,108.400 107.749 M281.800 114.832 C 278.915 117.006,276.767 118.855,278.400 117.759 C 279.792 116.824,285.200 112.677,285.200 112.545 C 285.200 112.284,285.032 112.397,281.800 114.832 M116.140 113.503 C 116.296 113.756,116.991 114.367,117.684 114.860 C 118.377 115.354,118.817 115.550,118.660 115.297 C 118.504 115.044,117.809 114.433,117.116 113.940 C 116.423 113.446,115.983 113.250,116.140 113.503 M119.200 115.789 C 119.200 116.095,126.165 121.188,126.593 121.194 C 126.809 121.197,126.147 120.615,125.123 119.900 C 124.098 119.185,122.346 117.925,121.230 117.101 C 120.113 116.276,119.200 115.686,119.200 115.789 M276.000 119.249 C 274.606 120.471,274.605 120.472,275.888 119.619 C 276.596 119.148,277.282 118.591,277.412 118.381 C 277.797 117.757,277.477 117.954,276.000 119.249 M272.100 122.037 C 270.945 122.912,270.000 123.711,270.000 123.813 C 270.000 124.065,273.941 121.218,274.223 120.763 C 274.571 120.200,274.350 120.332,272.100 122.037 M127.200 121.749 C 127.200 121.835,127.830 122.386,128.600 122.973 C 129.370 123.560,129.998 123.897,129.995 123.720 C 129.992 123.544,129.362 122.993,128.595 122.496 C 127.828 121.999,127.200 121.663,127.200 121.749 M48.585 124.500 C 48.481 124.775,48.441 175.580,48.498 237.400 L 48.600 349.800 48.800 236.900 C 48.910 174.805,48.949 124.000,48.887 124.000 C 48.826 124.000,48.689 124.225,48.585 124.500 M267.985 125.229 L 266.600 126.458 268.100 125.381 C 269.426 124.430,269.857 124.000,269.485 124.000 C 269.422 124.000,268.747 124.553,267.985 125.229 M351.397 236.400 C 351.397 298.110,351.443 323.355,351.500 292.500 C 351.557 261.645,351.557 211.155,351.500 180.300 C 351.443 149.445,351.397 174.690,351.397 236.400 M264.785 127.629 L 263.400 128.858 264.900 127.781 C 266.226 126.830,266.657 126.400,266.285 126.400 C 266.222 126.400,265.547 126.953,264.785 127.629 M53.200 127.310 C 53.530 127.652,55.330 129.049,57.200 130.412 C 59.070 131.776,60.240 132.532,59.800 132.094 C 58.825 131.122,52.355 126.432,53.200 127.310 M134.940 127.503 C 135.096 127.756,135.791 128.367,136.484 128.860 C 137.177 129.354,137.617 129.550,137.460 129.297 C 137.304 129.044,136.609 128.433,135.916 127.940 C 135.223 127.446,134.783 127.250,134.940 127.503 M342.918 130.124 C 341.113 131.486,339.403 132.865,339.118 133.189 C 338.708 133.655,338.767 133.650,339.400 133.162 C 339.840 132.823,341.595 131.513,343.300 130.250 C 345.005 128.988,346.400 127.875,346.400 127.778 C 346.400 127.498,346.379 127.512,342.918 130.124 M261.585 130.029 L 260.200 131.258 261.700 130.181 C 263.026 129.230,263.457 128.800,263.085 128.800 C 263.022 128.800,262.347 129.353,261.585 130.029 M138.169 129.949 C 138.559 130.582,140.801 132.099,140.795 131.727 C 140.792 131.547,140.143 130.981,139.352 130.468 C 138.560 129.955,138.028 129.722,138.169 129.949 M141.344 132.309 C 141.660 132.821,144.000 134.553,144.000 134.275 C 144.000 134.176,143.339 133.591,142.532 132.975 C 141.724 132.359,141.189 132.059,141.344 132.309 M257.200 133.249 C 255.806 134.471,255.805 134.472,257.088 133.619 C 257.796 133.148,258.482 132.591,258.612 132.381 C 258.997 131.757,258.677 131.954,257.200 133.249 M60.800 132.925 C 60.800 133.024,61.461 133.609,62.268 134.225 C 63.076 134.841,63.611 135.141,63.456 134.891 C 63.140 134.379,60.800 132.647,60.800 132.925 M144.400 134.503 C 144.400 134.613,145.705 135.683,147.300 136.880 C 153.523 141.552,156.400 143.623,156.400 143.431 C 156.400 143.321,153.925 141.399,150.900 139.160 C 147.875 136.921,145.175 134.912,144.900 134.695 C 144.625 134.479,144.400 134.392,144.400 134.503 M253.300 136.037 C 252.145 136.912,251.200 137.711,251.200 137.813 C 251.200 138.065,255.141 135.218,255.423 134.763 C 255.771 134.200,255.550 134.332,253.300 136.037 M65.340 136.303 C 65.496 136.556,66.191 137.167,66.884 137.660 C 67.577 138.154,68.017 138.350,67.860 138.097 C 67.704 137.844,67.009 137.233,66.316 136.740 C 65.623 136.246,65.183 136.050,65.340 136.303 M249.185 139.229 L 247.800 140.458 249.300 139.381 C 250.626 138.430,251.057 138.000,250.685 138.000 C 250.622 138.000,249.947 138.553,249.185 139.229 M68.544 138.709 C 68.860 139.221,71.200 140.953,71.200 140.675 C 71.200 140.576,70.539 139.991,69.732 139.375 C 68.924 138.759,68.389 138.459,68.544 138.709 M329.200 140.435 L 327.800 141.648 329.295 140.724 C 330.117 140.216,330.792 139.665,330.795 139.500 C 330.802 139.064,330.738 139.102,329.200 140.435 M72.805 141.880 C 72.808 142.056,73.438 142.607,74.205 143.104 C 76.003 144.268,76.000 144.000,74.200 142.627 C 73.430 142.040,72.802 141.703,72.805 141.880 M326.456 142.434 C 325.936 142.855,325.666 143.194,325.856 143.187 C 326.344 143.169,327.776 142.043,327.571 141.839 C 327.477 141.745,326.975 142.013,326.456 142.434 M156.800 143.749 C 156.800 143.835,157.430 144.386,158.200 144.973 C 158.970 145.560,159.598 145.897,159.595 145.720 C 159.592 145.544,158.962 144.993,158.195 144.496 C 157.428 143.999,156.800 143.663,156.800 143.749 M76.000 144.184 C 76.000 144.337,81.368 148.482,83.200 149.743 C 83.733 150.110,83.733 150.085,83.200 149.512 C 82.457 148.714,76.000 143.935,76.000 144.184 M320.918 146.549 C 319.113 147.897,317.403 149.253,317.118 149.563 C 316.614 150.110,317.996 149.151,321.515 146.510 C 322.461 145.801,323.540 145.049,323.914 144.840 C 324.288 144.631,324.505 144.378,324.397 144.279 C 324.289 144.179,322.723 145.201,320.918 146.549 M160.000 146.125 C 160.000 146.224,160.661 146.809,161.468 147.425 C 162.276 148.041,162.811 148.341,162.656 148.091 C 162.340 147.579,160.000 145.847,160.000 146.125 M238.400 147.249 C 237.006 148.471,237.005 148.472,238.288 147.619 C 238.996 147.148,239.682 146.591,239.812 146.381 C 240.197 145.757,239.877 145.954,238.400 147.249 M229.729 153.513 C 225.950 156.311,222.845 158.734,222.829 158.898 C 222.801 159.185,235.187 150.105,236.386 148.960 C 237.734 147.671,236.230 148.700,229.729 153.513 M164.544 149.509 C 164.860 150.021,167.200 151.753,167.200 151.475 C 167.200 151.376,166.539 150.791,165.732 150.175 C 164.924 149.559,164.389 149.259,164.544 149.509 M84.000 150.125 C 84.000 150.224,84.661 150.809,85.468 151.425 C 86.276 152.041,86.811 152.341,86.656 152.091 C 86.340 151.579,84.000 149.847,84.000 150.125 M314.600 151.232 C 312.227 153.026,311.908 153.532,314.133 151.972 C 315.814 150.794,316.729 149.975,316.324 150.011 C 316.256 150.017,315.480 150.567,314.600 151.232 M167.919 152.036 C 168.871 153.067,178.197 159.909,178.397 159.723 C 178.505 159.622,178.288 159.369,177.915 159.161 C 177.542 158.952,175.654 157.595,173.719 156.144 C 168.482 152.220,167.345 151.415,167.919 152.036 M87.340 152.703 C 87.496 152.956,88.191 153.567,88.884 154.060 C 89.577 154.554,90.017 154.750,89.860 154.497 C 89.704 154.244,89.009 153.633,88.316 153.140 C 87.623 152.646,87.183 152.450,87.340 152.703 M310.385 154.418 L 309.000 155.635 310.495 154.718 C 311.317 154.213,311.992 153.665,311.995 153.500 C 312.003 153.037,311.869 153.113,310.385 154.418 M91.089 155.630 C 91.578 156.139,92.078 156.455,92.201 156.332 C 92.324 156.209,91.924 155.792,91.312 155.406 L 90.200 154.704 91.089 155.630 M307.594 156.418 C 307.047 156.839,306.780 157.180,307.000 157.178 C 307.529 157.173,308.991 156.058,308.765 155.831 C 308.668 155.734,308.141 155.998,307.594 156.418 M94.000 157.800 C 94.745 158.350,95.455 158.799,95.578 158.798 C 95.955 158.795,93.424 156.830,93.022 156.814 C 92.815 156.806,93.255 157.250,94.000 157.800 M220.300 160.614 C 219.255 161.380,218.400 162.107,218.400 162.229 C 218.400 162.487,221.974 159.966,222.257 159.509 C 222.574 158.995,222.281 159.160,220.300 160.614 M98.000 160.516 C 98.000 160.647,99.395 161.788,101.100 163.050 C 102.805 164.313,104.515 165.611,104.900 165.935 C 105.285 166.259,105.600 166.416,105.600 166.284 C 105.600 166.153,104.205 165.012,102.500 163.750 C 100.795 162.487,99.085 161.189,98.700 160.865 C 98.315 160.541,98.000 160.384,98.000 160.516 M299.600 162.435 L 298.200 163.648 299.695 162.724 C 300.517 162.216,301.192 161.665,301.195 161.500 C 301.202 161.064,301.138 161.102,299.600 162.435 M214.600 164.832 C 211.737 166.990,209.527 168.889,211.200 167.754 C 213.022 166.519,218.000 162.729,218.000 162.578 C 218.000 162.279,217.901 162.345,214.600 164.832 M183.340 163.503 C 183.496 163.756,184.191 164.367,184.884 164.860 C 185.577 165.354,186.017 165.550,185.860 165.297 C 185.704 165.044,185.009 164.433,184.316 163.940 C 183.623 163.446,183.183 163.250,183.340 163.503 M294.654 166.048 C 292.923 167.342,291.639 168.400,291.799 168.400 C 291.959 168.400,293.173 167.586,294.497 166.591 C 295.820 165.596,297.194 164.620,297.548 164.421 C 297.903 164.222,298.105 163.978,297.997 163.878 C 297.889 163.778,296.384 164.755,294.654 166.048 M186.400 165.774 C 186.400 165.873,187.795 166.988,189.500 168.250 C 191.205 169.513,192.915 170.811,193.300 171.135 C 193.685 171.459,193.997 171.561,193.993 171.362 C 193.989 171.163,193.134 170.424,192.093 169.720 C 191.052 169.017,189.345 167.800,188.300 167.016 C 187.255 166.233,186.400 165.674,186.400 165.774 M106.000 166.525 C 106.000 166.624,106.661 167.209,107.468 167.825 C 108.276 168.441,108.811 168.741,108.656 168.491 C 108.340 167.979,106.000 166.247,106.000 166.525 M208.800 169.235 L 207.400 170.448 208.895 169.524 C 209.717 169.016,210.392 168.465,210.395 168.300 C 210.402 167.864,210.338 167.902,208.800 169.235 M109.200 168.904 C 109.200 169.014,110.235 169.878,111.500 170.824 C 112.765 171.770,114.385 172.983,115.100 173.520 C 115.815 174.056,116.400 174.405,116.400 174.296 C 116.400 174.186,115.365 173.322,114.100 172.376 C 112.835 171.430,111.215 170.217,110.500 169.680 C 109.785 169.144,109.200 168.795,109.200 168.904 M288.385 170.829 L 287.000 172.058 288.500 170.981 C 289.826 170.030,290.257 169.600,289.885 169.600 C 289.822 169.600,289.147 170.153,288.385 170.829 M204.900 172.037 C 203.745 172.912,202.800 173.711,202.800 173.813 C 202.800 174.065,206.741 171.218,207.023 170.763 C 207.371 170.200,207.150 170.332,204.900 172.037 M194.400 171.749 C 194.400 171.835,195.030 172.386,195.800 172.973 C 196.570 173.560,197.198 173.897,197.195 173.720 C 197.192 173.544,196.562 172.993,195.795 172.496 C 195.028 171.999,194.400 171.663,194.400 171.749 M120.144 177.109 C 120.460 177.621,122.800 179.353,122.800 179.075 C 122.800 178.976,122.139 178.391,121.332 177.775 C 120.524 177.159,119.989 176.859,120.144 177.109 M275.854 180.048 C 274.123 181.342,272.839 182.400,272.999 182.400 C 273.159 182.400,274.373 181.586,275.697 180.591 C 277.020 179.596,278.394 178.620,278.748 178.421 C 279.103 178.222,279.305 177.978,279.197 177.878 C 279.089 177.778,277.584 178.755,275.854 180.048 M123.200 179.327 C 123.200 179.424,124.235 180.281,125.500 181.230 C 126.765 182.179,127.583 182.687,127.318 182.359 C 126.775 181.685,123.200 179.054,123.200 179.327 M128.097 183.033 C 128.227 183.244,129.191 184.032,130.237 184.784 C 131.284 185.535,132.033 185.978,131.903 185.767 C 131.773 185.556,130.809 184.768,129.763 184.016 C 128.716 183.265,127.967 182.822,128.097 183.033 M132.544 186.309 C 132.860 186.821,135.200 188.553,135.200 188.275 C 135.200 188.176,134.539 187.591,133.732 186.975 C 132.924 186.359,132.389 186.059,132.544 186.309 M135.744 188.709 C 136.060 189.221,138.400 190.953,138.400 190.675 C 138.400 190.576,137.739 189.991,136.932 189.375 C 136.124 188.759,135.589 188.459,135.744 188.709 M262.000 190.435 L 260.600 191.648 262.095 190.724 C 262.917 190.216,263.592 189.665,263.595 189.500 C 263.602 189.064,263.538 189.102,262.000 190.435 M138.940 191.103 C 139.096 191.356,139.791 191.967,140.484 192.460 C 141.177 192.954,141.617 193.150,141.460 192.897 C 141.304 192.644,140.609 192.033,139.916 191.540 C 139.223 191.046,138.783 190.850,138.940 191.103 M258.800 192.835 L 257.400 194.048 258.895 193.124 C 259.717 192.616,260.392 192.065,260.395 191.900 C 260.402 191.464,260.338 191.502,258.800 192.835 M143.200 194.184 C 143.200 194.337,148.568 198.482,150.400 199.743 C 150.933 200.110,150.933 200.085,150.400 199.512 C 149.657 198.714,143.200 193.935,143.200 194.184 M255.441 195.227 C 254.583 195.872,254.000 196.400,254.146 196.400 C 254.600 196.400,257.190 194.616,257.195 194.300 C 257.202 193.899,257.222 193.888,255.441 195.227 M251.500 198.214 C 250.455 198.980,249.600 199.696,249.600 199.803 C 249.600 199.952,252.131 198.283,253.967 196.923 C 254.058 196.856,253.968 196.804,253.767 196.810 C 253.565 196.815,252.545 197.447,251.500 198.214 M151.340 200.303 C 151.496 200.556,152.191 201.167,152.884 201.660 C 153.577 202.154,154.017 202.350,153.860 202.097 C 153.704 201.844,153.009 201.233,152.316 200.740 C 151.623 200.246,151.183 200.050,151.340 200.303 M247.400 201.232 C 245.030 203.024,244.727 203.502,246.880 202.054 C 247.913 201.359,248.869 200.612,249.003 200.395 C 249.374 199.794,249.139 199.917,247.400 201.232 M154.540 202.703 C 154.696 202.956,155.391 203.567,156.084 204.060 C 156.777 204.554,157.217 204.750,157.060 204.497 C 156.904 204.244,156.209 203.633,155.516 203.140 C 154.823 202.646,154.383 202.450,154.540 202.703 M243.185 204.418 L 241.800 205.635 243.295 204.718 C 244.117 204.213,244.792 203.665,244.795 203.500 C 244.803 203.037,244.669 203.113,243.185 204.418 M158.289 205.630 C 158.778 206.139,159.278 206.455,159.401 206.332 C 159.524 206.209,159.124 205.792,158.512 205.406 L 157.400 204.704 158.289 205.630 M239.985 206.818 L 238.600 208.035 240.095 207.118 C 240.917 206.613,241.592 206.065,241.595 205.900 C 241.603 205.437,241.469 205.513,239.985 206.818 M165.200 210.515 C 165.200 210.646,167.315 212.326,169.900 214.247 C 172.485 216.169,174.915 218.007,175.300 218.333 C 175.685 218.658,176.000 218.817,176.000 218.685 C 176.000 218.554,173.885 216.874,171.300 214.953 C 168.715 213.031,166.285 211.193,165.900 210.867 C 165.515 210.542,165.200 210.383,165.200 210.515 M232.400 212.435 L 231.000 213.648 232.495 212.724 C 233.317 212.216,233.992 211.665,233.995 211.500 C 234.002 211.064,233.938 211.102,232.400 212.435 M227.454 216.048 C 225.723 217.342,224.439 218.400,224.599 218.400 C 224.759 218.400,225.973 217.586,227.297 216.591 C 228.620 215.596,229.994 214.620,230.348 214.421 C 230.703 214.222,230.905 213.978,230.797 213.878 C 230.689 213.778,229.184 214.755,227.454 216.048 M176.400 218.925 C 176.400 219.024,177.061 219.609,177.868 220.225 C 178.676 220.841,179.211 221.141,179.056 220.891 C 178.740 220.379,176.400 218.647,176.400 218.925 M221.185 220.829 L 219.800 222.058 221.300 220.981 C 222.626 220.030,223.057 219.600,222.685 219.600 C 222.622 219.600,221.947 220.153,221.185 220.829 M180.944 222.309 C 181.260 222.821,183.600 224.553,183.600 224.275 C 183.600 224.176,182.939 223.591,182.132 222.975 C 181.324 222.359,180.789 222.059,180.944 222.309 M187.090 227.000 C 188.233 227.770,189.308 228.400,189.479 228.400 C 189.650 228.400,188.854 227.770,187.710 227.000 C 186.567 226.230,185.492 225.600,185.321 225.600 C 185.150 225.600,185.946 226.230,187.090 227.000 M190.153 228.686 C 190.594 229.127,193.351 229.990,194.200 229.953 C 194.728 229.930,194.592 229.808,193.800 229.596 C 193.140 229.418,191.991 229.082,191.246 228.849 C 190.501 228.616,190.009 228.542,190.153 228.686 M195.738 230.494 C 195.992 230.656,197.910 230.788,200.000 230.788 C 202.090 230.788,204.008 230.656,204.262 230.494 C 204.516 230.332,202.598 230.200,200.000 230.200 C 197.402 230.200,195.484 230.332,195.738 230.494 " stroke="none" fill="#f6aea9" fill-rule="evenodd"></path><path id="path3" d="M19.400 50.800 C 19.251 51.042,19.796 51.200,20.776 51.200 C 21.669 51.200,22.400 51.020,22.400 50.800 C 22.400 50.580,21.781 50.400,21.024 50.400 C 20.267 50.400,19.536 50.580,19.400 50.800 M24.098 50.900 C 24.199 51.207,25.102 51.426,26.431 51.466 C 27.624 51.502,28.285 51.444,27.900 51.337 C 27.515 51.229,27.200 50.975,27.200 50.771 C 27.200 50.567,26.465 50.400,25.567 50.400 C 24.439 50.400,23.984 50.555,24.098 50.900 M372.400 50.800 C 372.400 51.020,371.995 51.214,371.500 51.232 C 371.005 51.249,370.835 51.357,371.121 51.472 C 371.911 51.788,374.456 51.214,374.188 50.780 C 373.875 50.274,372.400 50.291,372.400 50.800 M16.200 51.600 C 16.064 51.820,16.323 52.000,16.776 52.000 C 17.229 52.000,17.600 51.820,17.600 51.600 C 17.600 51.380,17.341 51.200,17.024 51.200 C 16.707 51.200,16.336 51.380,16.200 51.600 M362.785 55.232 L 361.400 56.463 362.688 55.613 C 363.830 54.859,364.693 54.000,364.308 54.000 C 364.232 54.000,363.547 54.554,362.785 55.232 M9.600 54.800 C 9.600 55.020,9.870 55.200,10.200 55.200 C 10.530 55.200,10.800 55.020,10.800 54.800 C 10.800 54.580,10.530 54.400,10.200 54.400 C 9.870 54.400,9.600 54.580,9.600 54.800 M38.005 55.873 C 38.008 56.053,38.657 56.619,39.448 57.132 C 40.240 57.645,40.772 57.878,40.631 57.651 C 40.241 57.018,37.999 55.501,38.005 55.873 M6.458 57.590 C 5.546 58.475,4.800 59.384,4.800 59.610 C 4.800 59.836,5.627 59.194,6.639 58.182 C 7.650 57.171,8.396 56.262,8.296 56.163 C 8.197 56.063,7.369 56.706,6.458 57.590 M41.344 58.309 C 41.660 58.821,44.000 60.553,44.000 60.275 C 44.000 60.176,43.339 59.591,42.532 58.975 C 41.724 58.359,41.189 58.059,41.344 58.309 M44.400 60.564 C 44.400 60.668,46.515 62.326,49.100 64.247 C 51.685 66.169,54.115 68.007,54.500 68.333 C 54.885 68.658,55.200 68.821,55.200 68.695 C 55.200 68.568,53.805 67.405,52.100 66.110 C 47.014 62.246,44.400 60.363,44.400 60.564 M3.260 61.442 C 2.531 62.266,3.000 62.657,3.781 61.876 C 4.121 61.536,4.400 61.154,4.400 61.029 C 4.400 60.609,3.806 60.824,3.260 61.442 M350.800 64.049 C 349.406 65.271,349.405 65.272,350.688 64.419 C 351.396 63.948,352.082 63.391,352.212 63.181 C 352.597 62.557,352.277 62.754,350.800 64.049 M1.200 65.000 C 1.200 65.330,1.380 65.600,1.600 65.600 C 1.820 65.600,2.000 65.330,2.000 65.000 C 2.000 64.670,1.820 64.400,1.600 64.400 C 1.380 64.400,1.200 64.670,1.200 65.000 M347.211 66.620 C 346.447 67.159,345.997 67.599,346.211 67.598 C 346.425 67.597,347.140 67.153,347.800 66.612 C 349.341 65.349,349.005 65.353,347.211 66.620 M0.578 66.435 C 0.431 66.674,0.510 67.070,0.755 67.315 C 1.082 67.642,1.200 67.526,1.200 66.880 C 1.200 65.914,0.992 65.765,0.578 66.435 M56.817 69.873 C 56.826 70.053,57.466 70.603,58.238 71.095 C 59.010 71.588,59.537 71.821,59.409 71.614 C 59.039 71.016,56.798 69.511,56.817 69.873 M60.140 72.303 C 60.296 72.556,60.991 73.167,61.684 73.660 C 62.377 74.154,62.817 74.350,62.660 74.097 C 62.504 73.844,61.809 73.233,61.116 72.740 C 60.423 72.246,59.983 72.050,60.140 72.303 M332.000 78.049 C 330.606 79.271,330.605 79.272,331.888 78.419 C 332.596 77.948,333.282 77.391,333.412 77.181 C 333.797 76.557,333.477 76.754,332.000 78.049 M326.300 82.218 C 324.375 83.651,322.800 84.924,322.800 85.046 C 322.800 85.169,323.565 84.694,324.500 83.990 C 325.435 83.287,327.055 82.084,328.100 81.318 C 329.736 80.119,330.300 79.582,329.900 79.606 C 329.845 79.609,328.225 80.785,326.300 82.218 M70.833 80.530 C 70.925 80.601,71.630 81.066,72.400 81.563 L 73.800 82.466 72.600 81.435 C 71.940 80.868,71.235 80.403,71.033 80.402 C 70.832 80.401,70.742 80.458,70.833 80.530 M82.140 88.703 C 82.296 88.956,82.991 89.567,83.684 90.060 C 84.377 90.554,84.817 90.750,84.660 90.497 C 84.504 90.244,83.809 89.633,83.116 89.140 C 82.423 88.646,81.983 88.450,82.140 88.703 M316.400 89.635 L 315.000 90.848 316.495 89.924 C 317.317 89.416,317.992 88.865,317.995 88.700 C 318.002 88.264,317.938 88.302,316.400 89.635 M86.544 91.909 C 86.860 92.421,89.200 94.153,89.200 93.875 C 89.200 93.776,88.539 93.191,87.732 92.575 C 86.924 91.959,86.389 91.659,86.544 91.909 M89.607 94.238 C 89.611 94.437,90.466 95.176,91.507 95.880 C 92.548 96.583,94.255 97.800,95.300 98.584 C 96.345 99.367,97.200 99.926,97.200 99.826 C 97.200 99.727,95.805 98.612,94.100 97.350 C 92.395 96.087,90.685 94.789,90.300 94.465 C 89.915 94.141,89.603 94.039,89.607 94.238 M301.985 100.429 L 300.600 101.658 302.100 100.581 C 303.426 99.630,303.857 99.200,303.485 99.200 C 303.422 99.200,302.747 99.753,301.985 100.429 M97.600 100.125 C 97.600 100.224,98.261 100.809,99.068 101.425 C 99.876 102.041,100.411 102.341,100.256 102.091 C 99.940 101.579,97.600 99.847,97.600 100.125 M298.785 102.829 L 297.400 104.058 298.900 102.981 C 300.226 102.030,300.657 101.600,300.285 101.600 C 300.222 101.600,299.547 102.153,298.785 102.829 M105.205 105.880 C 105.208 106.056,105.838 106.607,106.605 107.104 C 108.403 108.268,108.400 108.000,106.600 106.627 C 105.830 106.040,105.202 105.703,105.205 105.880 M108.405 108.280 C 108.408 108.456,109.038 109.007,109.805 109.504 C 111.603 110.668,111.600 110.400,109.800 109.027 C 109.030 108.440,108.402 108.103,108.405 108.280 M111.744 110.709 C 112.060 111.221,114.400 112.953,114.400 112.675 C 114.400 112.576,113.739 111.991,112.932 111.375 C 112.124 110.759,111.589 110.459,111.744 110.709 M284.100 113.637 C 282.945 114.512,282.000 115.311,282.000 115.413 C 282.000 115.665,285.941 112.818,286.223 112.363 C 286.571 111.800,286.350 111.932,284.100 113.637 M114.800 112.929 C 114.800 113.053,116.195 114.188,117.900 115.450 C 119.605 116.713,121.315 118.011,121.700 118.335 C 122.085 118.659,122.400 118.821,122.400 118.695 C 122.400 118.568,120.915 117.343,119.100 115.972 C 117.285 114.602,115.575 113.305,115.300 113.091 C 115.025 112.877,114.800 112.804,114.800 112.929 M279.985 116.829 L 278.600 118.058 280.100 116.981 C 281.426 116.030,281.857 115.600,281.485 115.600 C 281.422 115.600,280.747 116.153,279.985 116.829 M124.144 119.909 C 124.460 120.421,126.800 122.153,126.800 121.875 C 126.800 121.776,126.139 121.191,125.332 120.575 C 124.524 119.959,123.989 119.659,124.144 119.909 M127.205 122.273 C 127.208 122.453,127.857 123.019,128.648 123.532 C 129.440 124.045,129.972 124.278,129.831 124.051 C 129.441 123.418,127.199 121.901,127.205 122.273 M351.603 236.538 C 351.714 298.612,351.849 349.445,351.903 349.500 C 351.956 349.555,352.709 349.600,353.576 349.600 C 355.808 349.600,355.965 348.904,353.808 348.580 L 352.000 348.309 352.000 236.178 C 352.000 174.506,351.865 123.964,351.700 123.862 C 351.535 123.760,351.491 174.464,351.603 236.538 M130.540 124.703 C 130.696 124.956,131.391 125.567,132.084 126.060 C 132.777 126.554,133.217 126.750,133.060 126.497 C 132.904 126.244,132.209 125.633,131.516 125.140 C 130.823 124.646,130.383 124.450,130.540 124.703 M264.600 128.235 L 263.400 129.266 264.800 128.363 C 266.596 127.204,266.601 127.200,266.167 127.202 C 265.965 127.203,265.260 127.668,264.600 128.235 M261.047 130.798 C 259.145 132.237,258.744 132.647,259.800 132.074 C 260.717 131.576,263.101 129.630,262.800 129.626 C 262.690 129.624,261.901 130.151,261.047 130.798 M341.600 130.849 C 340.206 132.071,340.205 132.072,341.488 131.219 C 342.196 130.748,342.882 130.191,343.012 129.981 C 343.397 129.357,343.077 129.554,341.600 130.849 M138.033 130.523 C 140.115 132.065,142.421 133.558,142.221 133.234 C 141.905 132.723,138.578 130.400,138.161 130.400 C 137.999 130.400,137.942 130.456,138.033 130.523 M62.726 133.928 C 64.308 135.328,67.600 137.723,67.600 137.473 C 67.600 137.376,66.205 136.275,64.500 135.025 C 62.795 133.776,61.997 133.282,62.726 133.928 M256.984 133.911 C 255.638 135.117,255.981 135.011,257.754 133.672 C 258.389 133.192,258.749 132.805,258.554 132.811 C 258.359 132.817,257.653 133.312,256.984 133.911 M146.000 136.125 C 146.000 136.224,146.661 136.809,147.468 137.425 C 148.276 138.041,148.811 138.341,148.656 138.091 C 148.340 137.579,146.000 135.847,146.000 136.125 M69.185 138.771 C 69.947 139.447,70.742 140.000,70.952 140.000 C 71.162 140.000,71.258 139.948,71.167 139.884 C 71.075 139.820,70.280 139.267,69.400 138.655 L 67.800 137.542 69.185 138.771 M149.200 138.525 C 149.200 138.624,149.861 139.209,150.668 139.825 C 151.476 140.441,152.011 140.741,151.856 140.491 C 151.540 139.979,149.200 138.247,149.200 138.525 M248.711 139.929 C 247.672 140.714,246.896 141.429,246.985 141.518 C 247.074 141.607,247.924 141.079,248.873 140.344 C 249.823 139.609,250.675 138.961,250.767 138.904 C 250.858 138.847,250.858 138.733,250.767 138.651 C 250.675 138.569,249.750 139.144,248.711 139.929 M329.185 140.029 L 327.800 141.258 329.400 140.145 C 330.280 139.533,331.075 138.980,331.167 138.916 C 331.258 138.852,331.162 138.800,330.952 138.800 C 330.742 138.800,329.947 139.353,329.185 140.029 M153.744 141.909 C 154.060 142.421,156.400 144.153,156.400 143.875 C 156.400 143.776,155.739 143.191,154.932 142.575 C 154.124 141.959,153.589 141.659,153.744 141.909 M156.807 144.238 C 156.811 144.437,157.666 145.176,158.707 145.880 C 159.748 146.583,161.455 147.800,162.500 148.584 C 163.545 149.367,164.400 149.926,164.400 149.826 C 164.400 149.727,163.005 148.612,161.300 147.350 C 159.595 146.087,157.885 144.789,157.500 144.465 C 157.115 144.141,156.803 144.039,156.807 144.238 M80.544 147.109 C 80.860 147.621,83.200 149.353,83.200 149.075 C 83.200 148.976,82.539 148.391,81.732 147.775 C 80.924 147.159,80.389 146.859,80.544 147.109 M83.605 149.480 C 83.608 149.656,84.238 150.207,85.005 150.704 C 86.803 151.868,86.800 151.600,85.000 150.227 C 84.230 149.640,83.602 149.303,83.605 149.480 M234.785 150.429 L 233.400 151.658 234.900 150.581 C 236.226 149.630,236.657 149.200,236.285 149.200 C 236.222 149.200,235.547 149.753,234.785 150.429 M164.800 150.125 C 164.800 150.224,165.461 150.809,166.268 151.425 C 167.076 152.041,167.611 152.341,167.456 152.091 C 167.140 151.579,164.800 149.847,164.800 150.125 M86.944 151.909 C 87.260 152.421,89.600 154.153,89.600 153.875 C 89.600 153.776,88.939 153.191,88.132 152.575 C 87.324 151.959,86.789 151.659,86.944 151.909 M231.585 152.829 L 230.200 154.058 231.700 152.981 C 233.026 152.030,233.457 151.600,233.085 151.600 C 233.022 151.600,232.347 152.153,231.585 152.829 M168.140 152.703 C 168.296 152.956,168.991 153.567,169.684 154.060 C 170.377 154.554,170.817 154.750,170.660 154.497 C 170.504 154.244,169.809 153.633,169.116 153.140 C 168.423 152.646,167.983 152.450,168.140 152.703 M310.600 153.835 L 309.400 154.866 310.800 153.963 C 312.596 152.804,312.601 152.800,312.167 152.802 C 311.965 152.803,311.260 153.268,310.600 153.835 M91.400 155.388 C 92.060 155.929,92.770 156.378,92.978 156.386 C 93.185 156.394,92.745 155.950,92.000 155.400 C 90.257 154.114,89.835 154.105,91.400 155.388 M307.185 156.429 L 305.800 157.658 307.300 156.581 C 308.626 155.630,309.057 155.200,308.685 155.200 C 308.622 155.200,307.947 155.753,307.185 156.429 M172.405 155.880 C 172.408 156.056,173.038 156.607,173.805 157.104 C 175.603 158.268,175.600 158.000,173.800 156.627 C 173.030 156.040,172.402 155.703,172.405 155.880 M175.605 158.280 C 175.608 158.456,176.238 159.007,177.005 159.504 C 178.803 160.668,178.800 160.400,177.000 159.027 C 176.230 158.440,175.602 158.103,175.605 158.280 M178.944 160.709 C 179.260 161.221,181.600 162.953,181.600 162.675 C 181.600 162.576,180.939 161.991,180.132 161.375 C 179.324 160.759,178.789 160.459,178.944 160.709 M182.000 162.916 C 182.000 163.047,183.395 164.188,185.100 165.450 C 186.805 166.713,188.515 168.011,188.900 168.335 C 189.285 168.659,189.600 168.816,189.600 168.684 C 189.600 168.553,188.205 167.412,186.500 166.150 C 184.795 164.887,183.085 163.589,182.700 163.265 C 182.315 162.941,182.000 162.784,182.000 162.916 M102.400 163.325 C 102.400 163.424,103.061 164.009,103.868 164.625 C 104.676 165.241,105.211 165.541,105.056 165.291 C 104.740 164.779,102.400 163.047,102.400 163.325 M215.985 164.429 L 214.600 165.658 216.200 164.545 C 217.080 163.933,217.875 163.380,217.967 163.316 C 218.058 163.252,217.962 163.200,217.752 163.200 C 217.542 163.200,216.747 163.753,215.985 164.429 M296.400 164.449 C 295.006 165.671,295.005 165.672,296.288 164.819 C 296.996 164.348,297.682 163.791,297.812 163.581 C 298.197 162.957,297.877 163.154,296.400 164.449 M105.600 165.725 C 105.600 165.824,106.261 166.409,107.068 167.025 C 107.876 167.641,108.411 167.941,108.256 167.691 C 107.940 167.179,105.600 165.447,105.600 165.725 M212.785 166.829 L 211.400 168.058 212.900 166.981 C 214.226 166.030,214.657 165.600,214.285 165.600 C 214.222 165.600,213.547 166.153,212.785 166.829 M293.200 166.849 C 291.806 168.071,291.805 168.072,293.088 167.219 C 293.796 166.748,294.482 166.191,294.612 165.981 C 294.997 165.357,294.677 165.554,293.200 166.849 M110.144 169.109 C 110.460 169.621,112.800 171.353,112.800 171.075 C 112.800 170.976,112.139 170.391,111.332 169.775 C 110.524 169.159,109.989 168.859,110.144 169.109 M288.385 170.429 L 287.000 171.658 288.500 170.581 C 289.826 169.630,290.257 169.200,289.885 169.200 C 289.822 169.200,289.147 169.753,288.385 170.429 M191.344 169.909 C 191.660 170.421,194.000 172.153,194.000 171.875 C 194.000 171.776,193.339 171.191,192.532 170.575 C 191.724 169.959,191.189 169.659,191.344 169.909 M114.385 172.371 C 115.147 173.047,115.942 173.600,116.152 173.600 C 116.362 173.600,116.458 173.548,116.367 173.484 C 116.275 173.420,115.480 172.867,114.600 172.255 L 113.000 171.142 114.385 172.371 M194.405 172.273 C 194.408 172.453,195.057 173.019,195.848 173.532 C 196.640 174.045,197.172 174.278,197.031 174.051 C 196.641 173.418,194.399 171.901,194.405 172.273 M201.256 175.234 C 200.736 175.655,200.466 175.994,200.656 175.987 C 201.144 175.969,202.576 174.843,202.371 174.639 C 202.277 174.545,201.775 174.813,201.256 175.234 M274.400 180.849 C 273.006 182.071,273.005 182.072,274.288 181.219 C 274.996 180.748,275.682 180.191,275.812 179.981 C 276.197 179.357,275.877 179.554,274.400 180.849 M271.185 183.229 L 269.800 184.458 271.300 183.381 C 272.626 182.430,273.057 182.000,272.685 182.000 C 272.622 182.000,271.947 182.553,271.185 183.229 M128.944 183.109 C 129.260 183.621,131.600 185.353,131.600 185.075 C 131.600 184.976,130.939 184.391,130.132 183.775 C 129.324 183.159,128.789 182.859,128.944 183.109 M132.144 185.509 C 132.460 186.021,134.800 187.753,134.800 187.475 C 134.800 187.376,134.139 186.791,133.332 186.175 C 132.524 185.559,131.989 185.259,132.144 185.509 M136.385 188.771 C 137.147 189.447,137.942 190.000,138.152 190.000 C 138.362 190.000,138.458 189.948,138.367 189.884 C 138.275 189.820,137.480 189.267,136.600 188.655 L 135.000 187.542 136.385 188.771 M262.900 189.237 C 261.745 190.112,260.800 190.911,260.800 191.013 C 260.800 191.265,264.741 188.418,265.023 187.963 C 265.371 187.400,265.150 187.532,262.900 189.237 M139.800 191.365 C 140.460 191.932,141.165 192.397,141.367 192.398 C 141.801 192.400,141.796 192.396,140.000 191.237 L 138.600 190.334 139.800 191.365 M255.585 194.829 L 254.200 196.058 255.700 194.981 C 257.026 194.030,257.457 193.600,257.085 193.600 C 257.022 193.600,256.347 194.153,255.585 194.829 M150.805 199.480 C 150.808 199.656,151.438 200.207,152.205 200.704 C 154.003 201.868,154.000 201.600,152.200 200.227 C 151.430 199.640,150.802 199.303,150.805 199.480 M244.800 202.849 C 243.406 204.071,243.405 204.072,244.688 203.219 C 245.396 202.748,246.082 202.191,246.212 201.981 C 246.597 201.357,246.277 201.554,244.800 202.849 M154.400 202.146 C 154.400 202.256,154.940 202.730,155.600 203.200 C 156.260 203.670,156.800 203.964,156.800 203.854 C 156.800 203.744,156.260 203.270,155.600 202.800 C 154.940 202.330,154.400 202.036,154.400 202.146 M239.985 206.429 L 238.600 207.658 240.100 206.581 C 241.426 205.630,241.857 205.200,241.485 205.200 C 241.422 205.200,240.747 205.753,239.985 206.429 M169.740 213.503 C 169.896 213.756,170.591 214.367,171.284 214.860 C 171.977 215.354,172.417 215.550,172.260 215.297 C 172.104 215.044,171.409 214.433,170.716 213.940 C 170.023 213.446,169.583 213.250,169.740 213.503 M229.200 214.449 C 227.806 215.671,227.805 215.672,229.088 214.819 C 229.796 214.348,230.482 213.791,230.612 213.581 C 230.997 212.957,230.677 213.154,229.200 214.449 M172.800 215.725 C 172.800 215.824,173.461 216.409,174.268 217.025 C 175.076 217.641,175.611 217.941,175.456 217.691 C 175.140 217.179,172.800 215.447,172.800 215.725 M226.000 216.849 C 224.606 218.071,224.605 218.072,225.888 217.219 C 226.596 216.748,227.282 216.191,227.412 215.981 C 227.797 215.357,227.477 215.554,226.000 216.849 M177.344 219.109 C 177.660 219.621,180.000 221.353,180.000 221.075 C 180.000 220.976,179.339 220.391,178.532 219.775 C 177.724 219.159,177.189 218.859,177.344 219.109 M221.185 220.429 L 219.800 221.658 221.300 220.581 C 222.626 219.630,223.057 219.200,222.685 219.200 C 222.622 219.200,221.947 219.753,221.185 220.429 M180.400 221.370 C 180.400 221.460,181.120 222.103,182.000 222.800 C 182.880 223.497,183.593 223.917,183.585 223.734 C 183.570 223.405,180.400 221.053,180.400 221.370 M217.985 222.829 L 216.600 224.058 218.100 222.981 C 219.426 222.030,219.857 221.600,219.485 221.600 C 219.422 221.600,218.747 222.153,217.985 222.829 M213.611 225.820 C 212.847 226.359,212.432 226.800,212.689 226.800 C 212.946 226.800,213.660 226.356,214.278 225.813 C 215.708 224.554,215.399 224.558,213.611 225.820 M187.200 226.590 C 187.200 226.694,187.785 227.065,188.500 227.414 L 189.800 228.048 188.800 227.233 C 187.837 226.448,187.200 226.192,187.200 226.590 M195.800 229.981 C 196.568 230.329,198.710 230.556,198.367 230.253 C 198.275 230.172,197.480 229.996,196.600 229.862 C 195.485 229.693,195.242 229.729,195.800 229.981 M202.800 230.000 L 201.800 230.320 202.800 230.354 C 203.350 230.373,204.070 230.213,204.400 230.000 C 205.164 229.506,204.342 229.506,202.800 230.000 M0.006 328.676 C 0.003 329.378,0.180 330.064,0.400 330.200 C 0.913 330.517,0.913 328.793,0.400 328.000 C 0.105 327.543,0.011 327.705,0.006 328.676 M0.320 332.435 C 0.460 333.391,0.601 333.531,1.047 333.161 C 1.793 332.542,1.743 332.105,0.873 331.639 C 0.233 331.297,0.167 331.392,0.320 332.435 M399.092 332.642 C 398.931 332.802,398.800 333.209,398.800 333.547 C 398.800 333.997,398.918 334.042,399.245 333.715 C 399.490 333.470,399.621 333.063,399.537 332.810 C 399.452 332.557,399.252 332.481,399.092 332.642 M1.200 334.600 C 1.200 335.150,1.380 335.600,1.600 335.600 C 1.820 335.600,2.000 335.960,2.000 336.400 C 2.000 336.840,2.180 337.200,2.400 337.200 C 2.620 337.200,2.800 337.481,2.800 337.824 C 2.800 338.167,2.980 338.336,3.200 338.200 C 3.420 338.064,3.600 338.323,3.600 338.776 C 3.600 339.229,3.750 339.600,3.932 339.600 C 4.115 339.600,4.502 340.044,4.793 340.586 C 5.083 341.129,5.459 341.487,5.628 341.383 C 5.797 341.278,6.220 341.477,6.568 341.825 C 7.897 343.154,7.111 341.715,5.572 340.000 C 4.683 339.010,3.786 337.784,3.579 337.276 C 3.371 336.768,3.023 336.462,2.805 336.597 C 2.578 336.737,2.510 336.578,2.646 336.224 C 2.782 335.871,2.628 335.509,2.286 335.378 C 1.927 335.240,1.769 334.839,1.891 334.374 C 2.002 333.948,1.892 333.600,1.647 333.600 C 1.401 333.600,1.200 334.050,1.200 334.600 M392.861 342.284 C 391.088 344.100,391.451 344.359,393.342 342.627 C 394.160 341.878,394.688 341.186,394.515 341.089 C 394.342 340.992,393.597 341.530,392.861 342.284 M7.600 343.200 C 7.600 343.733,7.867 344.000,8.400 344.000 C 8.840 344.000,9.200 344.180,9.200 344.400 C 9.200 344.620,9.481 344.800,9.824 344.800 C 10.167 344.800,10.336 344.980,10.200 345.200 C 10.064 345.420,10.233 345.600,10.576 345.600 C 10.919 345.600,11.200 345.780,11.200 346.000 C 11.200 346.220,11.470 346.400,11.800 346.400 C 12.130 346.400,12.400 346.220,12.400 346.000 C 12.400 345.780,12.210 345.600,11.978 345.600 C 11.746 345.600,10.981 345.060,10.278 344.399 C 9.575 343.739,8.784 343.280,8.520 343.379 C 8.234 343.487,8.130 343.326,8.263 342.980 C 8.386 342.661,8.286 342.400,8.043 342.400 C 7.799 342.400,7.600 342.760,7.600 343.200 M12.800 346.800 C 12.800 347.020,13.171 347.200,13.624 347.200 C 14.077 347.200,14.336 347.020,14.200 346.800 C 14.064 346.580,13.693 346.400,13.376 346.400 C 13.059 346.400,12.800 346.580,12.800 346.800 M14.400 347.600 C 13.931 347.903,14.034 347.989,14.876 347.994 C 15.468 347.997,16.064 348.180,16.200 348.400 C 16.540 348.950,18.800 348.907,18.800 348.350 C 18.800 348.063,18.364 347.987,17.600 348.140 C 16.701 348.320,16.400 348.232,16.400 347.790 C 16.400 347.122,15.301 347.018,14.400 347.600 M382.400 348.400 C 382.400 348.620,382.670 348.800,383.000 348.800 C 383.330 348.800,383.600 348.620,383.600 348.400 C 383.600 348.180,383.330 348.000,383.000 348.000 C 382.670 348.000,382.400 348.180,382.400 348.400 M20.800 348.977 C 20.800 349.450,21.240 349.600,22.633 349.600 C 24.994 349.600,24.855 348.653,22.469 348.477 C 21.172 348.381,20.800 348.493,20.800 348.977 M377.100 348.687 C 375.291 348.960,375.856 349.600,377.900 349.594 C 380.171 349.587,381.358 349.042,379.934 348.661 C 379.420 348.523,378.820 348.435,378.600 348.465 C 378.380 348.495,377.705 348.595,377.100 348.687 " stroke="none" fill="#f48c84" fill-rule="evenodd"></path><path id="path4" d="M5.600 341.339 C 5.600 341.762,7.247 343.287,7.467 343.067 C 7.611 342.923,7.312 342.444,6.803 342.003 C 5.902 341.221,5.600 341.055,5.600 341.339 " stroke="none" fill="#f49494" fill-rule="evenodd"></path></g></svg>